# xmcd
# Track frame offsets:
# 150
# 12438
# 28030
# 43624
# 65116
# 86670
# 101280
# 113597
# 127143
# 147665
# 164715
# 177905
# 193307
#
# Disc length: 2826 seconds
# Revision: 0
# Processed by: cddbd v1.5.2PL0 Copyright (c) Steve Scherf et al.
# Submitted via: VisiTrax 2.10.1.251 - For more info visit www.synapsa.com
#
DISCID=c10b080d
DTITLE=Don Edwards - Moonlight And Skies
DYEAR=2006
DGENRE=Cowboy
TTITLE0=My Blue Heaven
TTITLE1=St. Louis Blues
TTITLE2=Land Of My Boyhood Dreams
TTITLE3=Boots And Saddle
TTITLE4=That's How The Yodel Was Born
TTITLE5=Moonlight And Skies
TTITLE6=Ragged But Right
TTITLE7=The Long Trail
TTITLE8=Coyotes
TTITLE9=Dusty Skies
TTITLE10=Goodbye Old Pal
TTITLE11=Can't Shake The Sands Of Texas From My Shoes
TTITLE12=The Dying Cowboy Of Rimrock Ranch
EXTD=
EXTT0=
EXTT1=
EXTT2=
EXTT3=
EXTT4=
EXTT5=
EXTT6=
EXTT7=
EXTT8=
EXTT9=
EXTT10=
EXTT11=
EXTT12=
PLAYORDER=
